{
  "accessors": [
    {
      "bufferView": 2,
      "componentType": 5126,
      "count": 960,
      "max": [
        4.827052116394043,
        4.79517126083374,
        42.2264404296875
      ],
      "min": [
        -37.183475494384766,
        -17.86568832397461,
        -0.7836315035820007
      ],
      "type": "VEC3"
    },
    {
      "bufferView": 2,
      "byteOffset": 11520,
      "componentType": 5126,
      "count": 960,
      "max": [
        0.9995366334915161,
        0.9979416131973267,
        1.0
      ],
      "min": [
        -0.9995352029800415,
        -0.9979418516159058,
        -1.0
      ],
      "type": "VEC3"
    },
    {
      "bufferView": 1,
      "componentType": 5126,
      "count": 960,
      "max": [
        0.5546234250068665,
        0.9390109777450562
      ],
      "min": [
        0.05267086625099182,
        0.44329583644866943
      ],
      "type": "VEC2"
    },
    {
      "bufferView": 0,
      "componentType": 5125,
      "count": 1800,
      "type": "SCALAR"
    },
    {
      "bufferView": 2,
      "byteOffset": 23040,
      "componentType": 5126,
      "count": 296,
      "max": [
        2.053378105163574,
        4.2158660888671875,
        -0.8213302493095398
      ],
      "min": [
        -2.053378105163574,
        -5.43827486038208,
        -2.570122718811035
      ],
      "type": "VEC3"
    },
    {
      "bufferView": 2,
      "byteOffset": 26592,
      "componentType": 5126,
      "count": 296,
      "max": [
        0.5831738114356995,
        0.9894907474517822,
        0.8851815462112427
      ],
      "min": [
        -0.5831739902496338,
        -0.9749715328216553,
        -0.777593731880188
      ],
      "type": "VEC3"
    },
    {
      "bufferView": 1,
      "byteOffset": 7680,
      "componentType": 5126,
      "count": 296,
      "max": [
        0.999871551990509,
        0.5317966341972351
      ],
      "min": [
        0.000128434257931076,
        0.000128434257931076
      ],
      "type": "VEC2"
    },
    {
      "bufferView": 0,
      "byteOffset": 7200,
      "componentType": 5125,
      "count": 480,
      "type": "SCALAR"
    },
    {
      "bufferView": 2,
      "byteOffset": 30144,
      "componentType": 5126,
      "count": 87,
      "max": [
        1.8974803686141968,
        3.0905914306640625,
        -0.02606900781393051
      ],
      "min": [
        -1.8974803686141968,
        -2.1747543811798096,
        -0.8478251099586487
      ],
      "type": "VEC3"
    },
    {
      "bufferView": 2,
      "byteOffset": 31188,
      "componentType": 5126,
      "count": 87,
      "max": [
        0.8867241740226746,
        0.27710190415382385,
        0.9740406274795532
      ],
      "min": [
        -0.8867241144180298,
        -0.5526059865951538,
        0.45976129174232483
      ],
      "type": "VEC3"
    },
    {
      "bufferView": 1,
      "byteOffset": 10048,
      "componentType": 5126,
      "count": 87,
      "max": [
        0.9998102784156799,
        0.9194426536560059
      ],
      "min": [
        0.00018974214617628604,
        0.00018974214617628604
      ],
      "type": "VEC2"
    },
    {
      "bufferView": 0,
      "byteOffset": 9120,
      "componentType": 5125,
      "count": 270,
      "type": "SCALAR"
    },
    {
      "bufferView": 2,
      "byteOffset": 32232,
      "componentType": 5126,
      "count": 2197,
      "max": [
        1.3428897857666016,
        5.425313472747803,
        1.556322455406189
      ],
      "min": [
        -1.3428897857666016,
        0.00142669677734375,
        0.007640719413757324
      ],
      "type": "VEC3"
    },
    {
      "bufferView": 2,
      "byteOffset": 58596,
      "componentType": 5126,
      "count": 2197,
      "max": [
        1.0,
        0.9994806051254272,
        0.9999814629554749
      ],
      "min": [
        -1.0,
        -0.9991607069969177,
        -1.0
      ],
      "type": "VEC3"
    },
    {
      "bufferView": 1,
      "byteOffset": 10744,
      "componentType": 5126,
      "count": 2197,
      "max": [
        1.0013058185577393,
        0.9744260311126709
      ],
      "min": [
        0.01650160923600197,
        -1.0093071460723877
      ],
      "type": "VEC2"
    },
    {
      "bufferView": 0,
      "byteOffset": 10200,
      "componentType": 5125,
      "count": 5502,
      "type": "SCALAR"
    },
    {
      "bufferView": 2,
      "byteOffset": 84960,
      "componentType": 5126,
      "count": 1316,
      "max": [
        3.1822214126586914,
        3.1543421745300293,
        42.442813873291016
      ],
      "min": [
        -35.52093505859375,
        -16.221782684326172,
        -1.0000075101852417
      ],
      "type": "VEC3"
    },
    {
      "bufferView": 2,
      "byteOffset": 100752,
      "componentType": 5126,
      "count": 1316,
      "max": [
        0.9997335076332092,
        0.9999991655349731,
        1.0
      ],
      "min": [
        -0.9997336268424988,
        -0.9999825954437256,
        -1.0
      ],
      "type": "VEC3"
    },
    {
      "bufferView": 1,
      "byteOffset": 28320,
      "componentType": 5126,
      "count": 1316,
      "max": [
        0.954738438129425,
        0.4212769865989685
      ],
      "min": [
        0.5614128708839417,
        0.027725055813789368
      ],
      "type": "VEC2"
    },
    {
      "bufferView": 0,
      "byteOffset": 32208,
      "componentType": 5125,
      "count": 2412,
      "type": "SCALAR"
    }
  ],
  "asset": {
    "extras": {
      "author": "rajamanickam17.10.2001 (https://sketchfab.com/rajamanickam17.10.2001)",
      "license": "CC-BY-4.0 (http://creativecommons.org/licenses/by/4.0/)",
      "source": "https://sketchfab.com/3d-models/low-poly-car-3d-db864dfb7e3243f9adf2ba53aed65668",
      "title": "Low Poly Car 3d"
    },
    "generator": "Sketchfab-16.16.0",
    "version": "2.0"
  },
  "bufferViews": [
    {
      "buffer": 0,
      "byteLength": 41856,
      "name": "floatBufferViews",
      "target": 34963
    },
    {
      "buffer": 0,
      "byteLength": 38848,
      "byteOffset": 41856,
      "byteStride": 8,
      "name": "floatBufferViews",
      "target": 34962
    },
    {
      "buffer": 0,
      "byteLength": 116544,
      "byteOffset": 80704,
      "byteStride": 12,
      "name": "floatBufferViews",
      "target": 34962
    }
  ],
  "buffers": [
    {
      "byteLength": 197248,
      "uri": "scene.bin"
    }
  ],
  "materials": [
    {
      "doubleSided": true,
      "name": "Cylinder.000__0",
      "pbrMetallicRoughness": {
        "metallicFactor": 0.0,
        "roughnessFactor": 0.6
      }
    },
    {
      "doubleSided": true,
      "name": "Material.005",
      "pbrMetallicRoughness": {
        "baseColorFactor": [
          0.119275,
          0.119275,
          0.119275,
          1.0
        ],
        "metallicFactor": 0.0,
        "roughnessFactor": 0.8239417257461427
      }
    },
    {
      "doubleSided": true,
      "name": "Material.001",
      "pbrMetallicRoughness": {
        "baseColorFactor": [
          0.8,
          0.8,
          0.8,
          1.0
        ],
        "metallicFactor": 0.0,
        "roughnessFactor": 0.9665177655772241
      }
    },
    {
      "doubleSided": true,
      "name": "Material.003",
      "pbrMetallicRoughness": {
        "baseColorFactor": [
          0.195988,
          0.195988,
          0.195988,
          1.0
        ],
        "metallicFactor": 0.0
      }
    },
    {
      "doubleSided": true,
      "name": "Material.002",
      "pbrMetallicRoughness": {
        "baseColorFactor": [
          1.0,
          0.0106842,
          0.0851544,
          1.0
        ],
        "metallicFactor": 0.0,
        "roughnessFactor": 0.9905078167879545
      }
    }
  ],
  "meshes": [
    {
      "name": "Cylinder.001_Material.005_0",
      "primitives": [
        {
          "attributes": {
            "NORMAL": 1,
            "POSITION": 0,
            "TEXCOORD_0": 2
          },
          "indices": 3,
          "material": 1,
          "mode": 4
        }
      ]
    },
    {
      "name": "Plane.003_Material.001_0",
      "primitives": [
        {
          "attributes": {
            "NORMAL": 5,
            "POSITION": 4,
            "TEXCOORD_0": 6
          },
          "indices": 7,
          "material": 2,
          "mode": 4
        }
      ]
    },
    {
      "name": "Plane.005_Material.003_0",
      "primitives": [
        {
          "attributes": {
            "NORMAL": 9,
            "POSITION": 8,
            "TEXCOORD_0": 10
          },
          "indices": 11,
          "material": 3,
          "mode": 4
        }
      ]
    },
    {
      "name": "Plane.004_Material.002_0",
      "primitives": [
        {
          "attributes": {
            "NORMAL": 13,
            "POSITION": 12,
            "TEXCOORD_0": 14
          },
          "indices": 15,
          "material": 4,
          "mode": 4
        }
      ]
    },
    {
      "name": "Cylinder.000__0",
      "primitives": [
        {
          "attributes": {
            "NORMAL": 17,
            "POSITION": 16,
            "TEXCOORD_0": 18
          },
          "indices": 19,
          "material": 0,
          "mode": 4
        }
      ]
    }
  ],
  "nodes": [
    {
      "children": [
        1
      ],
      "matrix": [
        1.0,
        0.0,
        0.0,
        0.0,
        0.0,
        2.220446049250313e-16,
        -1.0,
        0.0,
        0.0,
        1.0,
        2.220446049250313e-16,
        0.0,
        0.0,
        0.0,
        0.0,
        1.0
      ],
      "name": "Sketchfab_model"
    },
    {
      "children": [
        2
      ],
      "matrix": [
        0.009999999776482582,
        0.0,
        0.0,
        0.0,
        0.0,
        0.0,
        0.009999999776482582,
        0.0,
        0.0,
        -0.009999999776482582,
        0.0,
        0.0,
        0.0,
        0.0,
        0.0,
        1.0
      ],
      "name": "low poly car 1.fbx"
    },
    {
      "children": [
        3,
        5,
        7,
        10,
        12,
        14,
        16
      ],
      "name": "RootNode"
    },
    {
      "children": [
        4
      ],
      "matrix": [
        5.549120201145861e-07,
        3.406025694561501,
        -8.42968172284444,
        -0.0,
        1.0787023038199011e-07,
        -8.429681722844457,
        -3.406025694561501,
        -0.0,
        6.036799907684315,
        -7.162411278473303e-08,
        3.684527322649248e-07,
        -0.0,
        -124.8952865600586,
        28.0,
        -81.233642578125,
        1.0
      ],
      "name": "Cylinder.001"
    },
    {
      "mesh": 0,
      "name": "Cylinder.001_Material.005_0"
    },
    {
      "children": [
        6
      ],
      "matrix": [
        -74.89581838266133,
        -11.453393464146773,
        -65.26435602185046,
        0.0,
        -8.63508542783599,
        99.34193363381168,
        -7.524328644426081,
        0.0,
        65.69666421094287,
        0.00022538036988789534,
        -75.39196450221881,
        0.0,
        553.7554931640625,
        189.4569549560547,
        793.5870361328125,
        1.0
      ],
      "name": "Camera"
    },
    {
      "name": "Object_6"
    },
    {
      "children": [
        8
      ],
      "matrix": [
        40.98933867737801,
        -0.8696406754743153,
        -18.178583706232413,
        0.0,
        13.28949368972362,
        32.0360636540749,
        28.432781234001567,
        0.0,
        12.434088798174638,
        -31.373198494374265,
        29.537421347039285,
        0.0,
        571.4210815429688,
        891.9225463867188,
        1155.0465087890625,
        1.0
      ],
      "name": "Spot"
    },
    {
      "children": [
        9
      ],
      "matrix": [
        1.0,
        0.0,
        0.0,
        0.0,
        0.0,
        2.220446049250313e-16,
        1.0,
        0.0,
        0.0,
        -1.0,
        2.220446049250313e-16,
        0.0,
        0.0,
        0.0,
        0.0,
        1.0
      ],
      "name": "Object_8"
    },
    {
      "name": "Object_9"
    },
    {
      "children": [
        11
      ],
      "matrix": [
        56.07418441772461,
        0.0,
        0.0,
        0.0,
        -0.0,
        -9.135644221678539e-06,
        -56.07418441772387,
        0.0,
        0.0,
        56.07418441772387,
        -9.135644221678539e-06,
        0.0,
        -0.40834271907806396,
        152.97760009765625,
        37.049556732177734,
        1.0
      ],
      "name": "Plane.003"
    },
    {
      "mesh": 1,
      "name": "Plane.003_Material.001_0"
    },
    {
      "children": [
        13
      ],
      "matrix": [
        56.07418441772461,
        0.0,
        0.0,
        0.0,
        -0.0,
        -9.135644221678539e-06,
        -56.07418441772387,
        0.0,
        0.0,
        56.07418441772387,
        -9.135644221678539e-06,
        0.0,
        -0.0002590008080005646,
        152.97760009765625,
        37.049556732177734,
        1.0
      ],
      "name": "Plane.005"
    },
    {
      "mesh": 2,
      "name": "Plane.005_Material.003_0"
    },
    {
      "children": [
        15
      ],
      "matrix": [
        100.0,
        0.0,
        0.0,
        0.0,
        0.0,
        -1.629206793918314e-05,
        -99.99999999999868,
        0.0,
        0.0,
        99.99999999999868,
        -1.629206793918314e-05,
        0.0,
        0.0,
        0.0,
        342.3743591308594,
        1.0
      ],
      "name": "Plane.004"
    },
    {
      "mesh": 3,
      "name": "Plane.004_Material.002_0"
    },
    {
      "children": [
        17
      ],
      "matrix": [
        5.549120201145861e-07,
        3.406025694561501,
        -8.42968172284444,
        -0.0,
        1.0787023038199011e-07,
        -8.429681722844457,
        -3.406025694561501,
        -0.0,
        6.036799907684315,
        -7.162411278473303e-08,
        3.684527322649248e-07,
        -0.0,
        -124.8952865600586,
        28.0,
        -81.233642578125,
        1.0
      ],
      "name": "Cylinder.000"
    },
    {
      "mesh": 4,
      "name": "Cylinder.000__0"
    }
  ],
  "scene": 0,
  "scenes": [
    {
      "name": "Sketchfab_Scene",
      "nodes": [
        0
      ]
    }
  ]
}
